# xmcd
#
# Track frame offsets:
#	150
#	26165
#	46695
#	60527
#	83007
#	94992
#	122920
#	131627
#	151882
#	178058
#
# Disc length: 2998 seconds
#
# Revision: 2
# Processed by: cddbd v1.5.2PL0 Copyright (c) Steve Scherf et al.
# Submitted via: EZCDAudioConverter 2.1.7.1
#
DISCID=7e0bb40a
DTITLE=V/A - Real World Notes V04
DYEAR=1997
DGENRE=
TTITLE0=Burning Spear - The Sun
TTITLE1=Tarika - Avelo
TTITLE2=Bisserov Sisters - Oi Ti Pile
TTITLE3=Habib Koite and Bamada - I Ka Barra
TTITLE4=Kroke - Rumenisher Tants
TTITLE5=Amampondo - Cumbetele (Children's Game)
TTITLE6=Gesuino Deiana - Carignos De Luna
TTITLE7=Waaberi and Maryam Mursal - Heei Yaa Alahobalin Hobalowa
TTITLE8=Peter Gabriel - We Do What We're Told – Miligrams Progress
TTITLE9=Ecd Track10
EXTD=
EXTT0=
EXTT1=
EXTT2=
EXTT3=
EXTT4=
EXTT5=
EXTT6=
EXTT7=
EXTT8=
EXTT9=
PLAYORDER=
